<?xml version="1.0" encoding="UTF-8" standalone="no"?>
<svg
   viewBox="0 0 96 96"
   width="96"
   height="96"
   version="1.1"
   id="svg8"
   sodipodi:docname="production_blue.svg"
   inkscape:version="1.4.3 (0d15f75, 2025-12-25)"
   xmlns:inkscape="http://www.inkscape.org/namespaces/inkscape"
   xmlns:sodipodi="http://sodipodi.sourceforge.net/DTD/sodipodi-0.dtd"
   xmlns="http://www.w3.org/2000/svg"
   xmlns:svg="http://www.w3.org/2000/svg">
  <defs
     id="defs8" />
  <sodipodi:namedview
     id="namedview8"
     pagecolor="#ffffff"
     bordercolor="#000000"
     borderopacity="0.25"
     inkscape:showpageshadow="2"
     inkscape:pageopacity="0.0"
     inkscape:pagecheckerboard="0"
     inkscape:deskcolor="#d1d1d1"
     inkscape:zoom="13.40625"
     inkscape:cx="47.962704"
     inkscape:cy="48"
     inkscape:window-width="3840"
     inkscape:window-height="1513"
     inkscape:window-x="-4"
     inkscape:window-y="-4"
     inkscape:window-maximized="1"
     inkscape:current-layer="svg8" />
  <circle
     cx="48"
     cy="48"
     r="14"
     fill="none"
     stroke="#F4F6FA"
     stroke-width="2.5"
     id="circle1" />
  <ellipse
     style="fill:#2e5aac;fill-opacity:1;stroke-width:3.50668"
     id="path8"
     cx="48.447556"
     cy="47.776222"
     rx="13.613053"
     ry="13.389277" />
  <g
     fill="#F4F6FA"
     id="g8">
    <rect
       x="45"
       y="28"
       width="6"
       height="10"
       rx="1"
       id="rect1" />
    <rect
       x="45"
       y="58"
       width="6"
       height="10"
       rx="1"
       id="rect2" />
    <rect
       x="28"
       y="45"
       width="10"
       height="6"
       rx="1"
       id="rect3" />
    <rect
       x="58"
       y="45"
       width="10"
       height="6"
       rx="1"
       id="rect4" />
    <rect
       x="34"
       y="34"
       width="8"
       height="6"
       rx="1"
       transform="rotate(-45 38 37)"
       id="rect5" />
    <rect
       x="54"
       y="34"
       width="8"
       height="6"
       rx="1"
       transform="rotate(45 58 37)"
       id="rect6" />
    <rect
       x="34"
       y="56"
       width="8"
       height="6"
       rx="1"
       transform="rotate(45 38 59)"
       id="rect7" />
    <rect
       x="54"
       y="56"
       width="8"
       height="6"
       rx="1"
       transform="rotate(-45 58 59)"
       id="rect8" />
  </g>
</svg>
